<svg fill="none" height="48" viewBox="0 0 48 48" width="48" xmlns="http://www.w3.org/2000/svg"><path d="m23.98 5.51118.02.0008.02-.0008c4.0642-.16257 11.9816 1.36761 15.48 8.61382v9.1967c-.1652.2038-.3196.4583-.4585.7235-.184.3512-.3591.757-.5107 1.1685-.2961.8038-.5308 1.7058-.5308 2.2979v.0615l.0149.0597c.2318.927.2322 1.8592.1159 2.6153-.0581.3775-.1439.7023-.2391.9537-.0996.2635-.194.405-.2453.4562-.2458.2458-.9692.9687-1.9297 1.6291-.973.6689-2.1196 1.2245-3.2167 1.2245-.6551 0-1.0682.4704-1.3115.9384-.248.477-.3994 1.0892-.4963 1.6818-.1954 1.1952-.1947 2.4817-.1922 2.8829l.0003.0479.0094.047c.0119.0597.0101.1402-.0811.2553-.1039.1311-.3319.3127-.7969.493-.9311.361-2.6432.6527-5.6163.6537-3.2414-.2001-4.9635-.4895-5.8457-.8078-.4424-.1597-.6008-.3019-.6546-.3766-.0332-.0462-.0495-.0941-.0248-.2176l.0094-.047.0003-.0479c.0025-.4012.0032-1.6877-.1922-2.8829-.0969-.5926-.2483-1.2048-.4963-1.6818-.2433-.468-.6564-.9384-1.3115-.9384-1.0971 0-2.2437-.5556-3.2167-1.2245-.9605-.6604-1.6839-1.3833-1.9297-1.6291-.0513-.0512-.1457-.1927-.2453-.4562-.0952-.2514-.18104-.5762-.23911-.9537-.11632-.7561-.11586-1.6883.11588-2.6153l.01493-.0597v-.0615c0-.5921-.23471-1.4941-.53083-2.2979-.1516-.4115-.32668-.8173-.51063-1.1685-.13894-.2652-.29337-.5197-.45854-.7235v-9.1967c3.4984-7.24621 11.4158-8.77639 15.48-8.61382zm.0018 21.47282c-.0896-.0051-.1991.0117-.3098.0852-.0664.0441-.1137.0961-.1474.1484-.0969.1056-.2008.2484-.2972.3888-.1418.2065-.3101.4723-.4893.7761-.3581.6071-.7691 1.3821-1.1067 2.1625-.3329.77-.6132 1.5877-.6774 2.2669-.0319.3381-.0159.694.1181 1.0032.1459.3366.4188.5846.8066.6815.4717.118.8931.1059 1.2593-.0279.3662-.1337.6336-.3733.8243-.637.0241-.0333.0472-.0672.0691-.1015.015.0189.0304.0376.0461.0561.2.2344.4673.4345.8147.54.3459.105.7367.1059 1.1691-.0022.3834-.0959.6574-.3379.8051-.6718.1357-.3066.1517-.6585.1195-.9908-.0646-.6669-.3463-1.4668-.6795-2.2171-.338-.761-.7496-1.5158-1.1081-2.1062-.1793-.2954-.348-.5539-.4902-.7544-.0973-.1372-.2041-.2794-.3045-.3834-.0337-.0477-.0793-.0946-.1413-.1346-.0995-.064-.1975-.0828-.2805-.0818zm-7.9818 4.0276c1.3967 0 2.8846-.6974 4.0128-1.6932 1.1252-.993 1.9872-2.3684 1.9872-3.8068 0-1.3369-.4058-2.6934-1.1649-3.7278-.7649-1.0423-1.9041-1.7722-3.3351-1.7722-1.4066 0-2.7772.7061-3.7855 1.7144-1.0084 1.0084-1.7145 2.379-1.7145 3.7856 0 1.2993.2635 2.6476.8894 3.6895.6391 1.0637 1.6641 1.8105 3.1106 1.8105zm11-5.5c0 1.4384.862 2.8138 1.9872 3.8068 1.1282.9958 2.6161 1.6932 4.0128 1.6932 1.4465 0 2.4715-.7468 3.1106-1.8105.6259-1.0419.8894-2.3902.8894-3.6895 0-1.4066-.7061-2.7772-1.7145-3.7856-1.0083-1.0083-2.3789-1.7144-3.7855-1.7144-1.431 0-2.5702.7299-3.3351 1.7722-.7591 1.0344-1.1649 2.3909-1.1649 3.7278z" fill="#ed3501" stroke="#ed3501"/></svg>